<?xml version="1.0" standalone="no"?>
<!DOCTYPE svg PUBLIC "-//W3C//DTD SVG 20010904//EN"
 "http://www.w3.org/TR/2001/REC-SVG-20010904/DTD/svg10.dtd">
<svg version="1.0" xmlns="http://www.w3.org/2000/svg"
 width="3840.000000pt" height="2160.000000pt" viewBox="0 0 3840.000000 2160.000000"
 preserveAspectRatio="xMidYMid meet">

<g transform="translate(0.000000,2160.000000) scale(0.100000,-0.100000)"
fill="#000000" stroke="none">
<path d="M16470 21250 c-30 -5 -77 -11 -105 -14 -227 -28 -512 -119 -750 -238
l-104 -53 1835 -3180 c1009 -1749 1838 -3185 1842 -3192 4 -6 804 1369 1817
3124 996 1724 1825 3161 1843 3193 l33 58 -143 70 c-248 121 -465 187 -753
229 -69 10 -5446 12 -5515 3z"/>
<path d="M7494 6928 c19 -313 91 -611 211 -878 57 -128 3 -33 628 -1115 286
-495 571 -990 635 -1100 586 -1015 1334 -2305 1374 -2370 231 -367 583 -684
977 -880 209 -104 394 -165 664 -217 l112 -22 7040 -3 c7484 -2 7106 -4 7339
42 629 125 1179 492 1534 1023 32 48 225 375 429 727 1418 2452 2159 3737
2202 3824 106 209 175 415 216 636 21 116 45 337 45 416 l0 29 -3675 0 c-2021
0 -3675 -2 -3675 -4 0 -2 556 -970 1236 -2152 1287 -2238 1263 -2195 1247
-2179 -6 6 -340 582 -743 1280 -1149 1990 -1742 3018 -1754 3038 -10 16 -403
17 -8030 17 l-8019 0 7 -112z m18621 -4355 c37 -65 70 -121 72 -125 2 -5 2 -8
-1 -8 -2 0 -35 53 -71 118 -37 64 -70 120 -72 125 -2 4 -2 7 1 7 2 0 35 -53
71 -117z m100 -173 c9 -16 13 -30 11 -30 -3 0 -12 14 -21 30 -9 17 -13 30 -11
30 3 0 12 -13 21 -30z m40 -70 c9 -16 13 -30 11 -30 -3 0 -12 14 -21 30 -9 17
-13 30 -11 30 3 0 12 -13 21 -30z m35 -60 c6 -11 8 -20 6 -20 -3 0 -10 9 -16
20 -6 11 -8 20 -6 20 3 0 10 -9 16 -20z m35 -60 c9 -16 13 -30 11 -30 -3 0
-12 14 -21 30 -9 17 -13 30 -11 30 3 0 12 -13 21 -30z m40 -70 c9 -16 13 -30
11 -30 -3 0 -12 14 -21 30 -9 17 -13 30 -11 30 3 0 12 -13 21 -30z m40 -70 c9
-16 13 -30 11 -30 -3 0 -12 14 -21 30 -9 17 -13 30 -11 30 3 0 12 -13 21 -30z
m35 -60 c6 -11 8 -20 6 -20 -3 0 -10 9 -16 20 -6 11 -8 20 -6 20 3 0 10 -9 16
-20z m40 -70 c6 -11 8 -20 6 -20 -3 0 -10 9 -16 20 -6 11 -8 20 -6 20 3 0 10
-9 16 -20z m40 -70 c6 -11 8 -20 6 -20 -3 0 -10 9 -16 20 -6 11 -8 20 -6 20 3
0 10 -9 16 -20z m30 -50 c6 -11 8 -20 6 -20 -3 0 -10 9 -16 20 -6 11 -8 20 -6
20 3 0 10 -9 16 -20z m40 -70 c6 -11 8 -20 6 -20 -3 0 -10 9 -16 20 -6 11 -8
20 -6 20 3 0 10 -9 16 -20z m40 -70 c6 -11 8 -20 6 -20 -3 0 -10 9 -16 20 -6
11 -8 20 -6 20 3 0 10 -9 16 -20z m40 -70 c6 -11 8 -20 6 -20 -3 0 -10 9 -16
20 -6 11 -8 20 -6 20 3 0 10 -9 16 -20z m190 -330 c6 -11 8 -20 6 -20 -3 0
-10 9 -16 20 -6 11 -8 20 -6 20 3 0 10 -9 16 -20z"/>
</g>
</svg>
